# Blender v2.78 (sub 0) OBJ File: 'testgem.blend'
# www.blender.org
mtllib testgem.mtl
o testgem_Circle.002
v 0.529789 0.638311 -0.287574
v 0.513407 0.015497 -0.195657
v 0.449538 0.445778 -0.105607
v 0.565226 0.243231 0.043433
v 0.351884 0.163288 0.120348
v 0.569606 0.061316 0.124820
v 0.645476 0.435765 -0.138535
v 0.789351 0.203740 -0.184208
v 0.782948 0.141259 0.047905
v 0.838557 0.013926 -0.148349
v 0.673664 0.406287 -0.333247
v 0.639021 0.166058 -0.466331
v 0.844961 0.076407 -0.380462
v 0.658161 -0.031293 -0.486896
v 0.495147 0.398082 -0.420658
v 0.321987 0.182260 -0.413052
v 0.452222 0.058357 -0.572765
v 0.277720 -0.011850 -0.422961
v 0.356629 0.422489 -0.279968
v 0.276378 0.229956 -0.098000
v 0.147484 0.112053 -0.263247
v 0.222990 0.045385 -0.044899
v -0.386342 -0.050801 -0.274653
v -0.439986 -0.061735 -0.216667
v -0.400549 -0.069976 -0.147845
v -0.322531 -0.064135 -0.163297
v -0.313751 -0.052284 -0.241669
v -0.401647 0.282358 -0.225990
v -0.455291 0.271424 -0.168004
v -0.415854 0.263184 -0.099182
v -0.337836 0.269025 -0.114635
v -0.329056 0.280875 -0.193006
v -0.398013 0.378217 -0.171403
v -0.419228 0.373893 -0.148469
v -0.403631 0.370633 -0.121251
v -0.372776 0.372944 -0.127362
v -0.369303 0.377630 -0.158358
v -0.225151 0.016103 -0.576174
v -0.421204 -0.019469 -0.544756
v -0.456122 -0.005453 -0.346581
v -0.281650 0.038780 -0.255520
v -0.138902 0.052102 -0.397416
v -0.390151 0.847876 -0.664071
v -0.586204 0.812305 -0.632653
v -0.621122 0.826320 -0.434478
v -0.446650 0.870553 -0.343417
v -0.303902 0.883876 -0.485313
v -0.488347 1.100947 -0.598858
v -0.565884 1.086879 -0.586432
v -0.579694 1.092422 -0.508056
v -0.510692 1.109916 -0.472042
v -0.454236 1.115185 -0.528161
v 0.183671 -0.127657 -0.790893
v -0.173445 -0.076611 -0.683904
v -0.172309 0.035849 -0.324828
v 0.185509 0.054307 -0.209895
v 0.405517 -0.046745 -0.497939
v 0.258043 1.388212 -1.265887
v -0.099073 1.439258 -1.158898
v -0.097937 1.551718 -0.799822
v 0.259881 1.570176 -0.684890
v 0.479889 1.469124 -0.972933
v 0.221484 1.906803 -1.235354
v 0.080247 1.926991 -1.193041
v 0.080696 1.971468 -1.051029
v 0.222210 1.978768 -1.005574
v 0.309222 1.938803 -1.119493
v -0.092387 0.098774 -0.385031
v -0.350563 0.046151 -0.105955
v -0.160759 0.006490 0.225268
v 0.214723 0.034602 0.150900
v 0.256979 0.091637 -0.226286
v -0.166047 1.702197 -0.150828
v -0.424223 1.649574 0.128248
v -0.234419 1.609913 0.459471
v 0.141063 1.638025 0.385103
v 0.183319 1.695060 0.007917
v -0.148553 2.163544 0.111891
v -0.250660 2.142732 0.222263
v -0.175594 2.127046 0.353260
v -0.027093 2.138165 0.323848
v -0.010381 2.160721 0.174673
vn 0.1588 0.6424 0.7497
vn 0.7037 0.3106 0.6390
vn 0.4067 0.8793 0.2479
vn 0.1716 0.4058 0.8977
vn 0.4605 -0.6794 0.5713
vn 0.8529 0.5201 0.0447
vn 0.8657 0.1412 -0.4802
vn 0.4961 0.7858 -0.3693
vn 0.9586 0.2671 0.0983
vn 0.5720 -0.7959 -0.1985
vn 0.3874 0.4034 -0.8290
vn -0.1603 0.0940 -0.9826
vn -0.0698 0.7598 -0.6464
vn 0.4307 0.1348 -0.8924
vn -0.1338 -0.8283 -0.5440
vn -0.5945 0.4536 -0.6640
vn -0.9565 0.2343 -0.1739
vn -0.5089 0.8372 -0.2004
vn -0.6826 0.1917 -0.7053
vn -0.6814 -0.7319 0.0122
vn -0.7357 0.6013 0.3117
vn -0.4225 0.3681 0.8282
vn -0.2144 0.9110 0.3523
vn -0.8427 0.3591 0.4011
vn -0.3141 -0.6398 0.7015
vn 0.0260 0.9889 -0.1460
vn 0.2021 -0.1325 0.9704
vn -0.7385 0.0641 -0.6711
vn 0.9929 0.0287 0.1156
vn -0.8680 -0.1106 0.4841
vn 0.4115 0.1502 -0.8989
vn 0.3775 0.4474 -0.8108
vn 0.1783 0.1785 0.9677
vn -0.7166 0.3655 -0.5940
vn 0.9306 0.3318 0.1544
vn -0.8398 0.1993 0.5051
vn -0.0454 0.9885 0.1444
vn -0.4631 0.0018 0.8863
vn -0.1338 -0.1304 -0.9824
vn 0.6795 0.2091 0.7032
vn -0.9657 -0.2080 -0.1554
vn 0.8830 0.1274 -0.4517
vn 0.7805 0.4218 -0.4615
vn -0.5002 0.3022 0.8115
vn -0.1869 0.1765 -0.9664
vn 0.5869 0.4995 0.6373
vn -0.9784 0.1026 -0.1796
vn -0.1935 0.9757 -0.1031
vn -0.3058 0.2983 0.9042
vn -0.3115 -0.2702 -0.9110
vn 0.8099 0.1388 0.5699
vn -0.9989 0.0455 -0.0111
vn 0.8064 -0.2125 -0.5519
vn 0.7816 0.0914 -0.6171
vn -0.2765 0.5774 0.7682
vn -0.2820 0.0366 -0.9587
vn 0.7849 0.4257 0.4502
vn -0.9359 0.3369 -0.1026
vn 0.0468 0.9532 -0.2987
usemtl Material.002
s off
f 7//1 1//1 3//1 4//1
f 7//2 4//2 8//2
f 8//3 4//3 9//3
f 9//4 4//4 5//4 6//4
f 9//5 6//5 10//5
f 11//6 1//6 7//6 8//6
f 11//7 8//7 12//7
f 12//8 8//8 13//8
f 13//9 8//9 9//9 10//9
f 13//10 10//10 14//10
f 15//11 1//11 11//11 12//11
f 15//12 12//12 16//12
f 16//13 12//13 17//13
f 17//14 12//14 13//14 14//14
f 17//15 14//15 18//15
f 19//16 1//16 15//16 16//16
f 19//17 16//17 20//17
f 20//18 16//18 21//18
f 21//19 16//19 17//19 18//19
f 21//20 18//20 22//20
f 3//21 1//21 19//21 20//21
f 3//22 20//22 4//22
f 4//23 20//23 5//23
f 5//24 20//24 21//24 22//24
f 5//25 22//25 6//25
f 6//26 2//26 22//26
f 2//26 6//26 10//26
f 2//26 10//26 14//26
f 2//26 14//26 18//26
f 2//26 18//26 22//26
f 26//27 31//27 30//27 25//27
f 24//28 29//28 28//28 23//28
f 27//29 32//29 31//29 26//29
f 25//30 30//30 29//30 24//30
f 23//31 28//31 32//31 27//31
f 32//32 28//32 33//32 37//32
f 30//33 31//33 36//33 35//33
f 28//34 29//34 34//34 33//34
f 31//35 32//35 37//35 36//35
f 29//36 30//36 35//36 34//36
f 34//37 35//37 36//37 37//37 33//37
f 41//38 46//38 45//38 40//38
f 39//39 44//39 43//39 38//39
f 42//40 47//40 46//40 41//40
f 40//41 45//41 44//41 39//41
f 38//42 43//42 47//42 42//42
f 47//43 43//43 48//43 52//43
f 45//44 46//44 51//44 50//44
f 43//45 44//45 49//45 48//45
f 46//46 47//46 52//46 51//46
f 44//47 45//47 50//47 49//47
f 49//48 50//48 51//48 52//48 48//48
f 56//49 61//49 60//49 55//49
f 54//50 59//50 58//50 53//50
f 57//51 62//51 61//51 56//51
f 55//52 60//52 59//52 54//52
f 53//53 58//53 62//53 57//53
f 62//54 58//54 63//54 67//54
f 60//55 61//55 66//55 65//55
f 58//56 59//56 64//56 63//56
f 61//57 62//57 67//57 66//57
f 59//58 60//58 65//58 64//58
f 64//59 65//59 66//59 67//59 63//59
f 71//27 76//27 75//27 70//27
f 69//28 74//28 73//28 68//28
f 72//29 77//29 76//29 71//29
f 70//30 75//30 74//30 69//30
f 68//31 73//31 77//31 72//31
f 77//32 73//32 78//32 82//32
f 75//33 76//33 81//33 80//33
f 73//34 74//34 79//34 78//34
f 76//35 77//35 82//35 81//35
f 74//36 75//36 80//36 79//36
f 79//37 80//37 81//37 82//37 78//37
